# xmcd
#
# Track frame offsets: 
#        180
#        18231
#        37001
#        54050
#        67087
#        91329
#        110794
#        133506
#        155137
#        166356
#        187599
#        213191
#
# Disc length: 3144 seconds
#
# Revision: 0
# Processed by: cddbd v1.4PL0 Copyright (c) Steve Scherf et al.
# Submitted via: ExactAudioCopy v0.90a11
#
DISCID=9c0c460c
DTITLE=Scotty Mac and The Rockin' Bonnevilles - ...travelin'
DYEAR=1900
DGENRE=
TTITLE0=Cadillac Jack
TTITLE1=Can't Win for Losin'
TTITLE2=My Home is a Prison
TTITLE3=Just My Luck
TTITLE4=Saturday Night Fish Fry
TTITLE5=Don't Shoot Me
TTITLE6=Havin' My Fish and Eatin' em Too!
TTITLE7=Somebody
TTITLE8=Harp Jump
TTITLE9=13 Women
TTITLE10=tavelin'
TTITLE11=Division 2
EXTD=
EXTT0=
EXTT1=
EXTT2=
EXTT3=
EXTT4=
EXTT5=
EXTT6=
EXTT7=
EXTT8=
EXTT9=
EXTT10=
EXTT11=
PLAYORDER=
